<svg width="0" height="0" class="hidden">
  <symbol xmlns="http://www.w3.org/2000/svg" enable-background="new 0 0 24 24" viewBox="0 0 24 24" id="inventory_black_24dp">
    <g>
      <rect fill="none" height="24" width="24"></rect>
    </g>
    <g>
      <g>
        <path d="M5,5h2v3h10V5h2v5h2V5c0-1.1-0.9-2-2-2h-4.18C14.4,1.84,13.3,1,12,1S9.6,1.84,9.18,3H5C3.9,3,3,3.9,3,5v14 c0,1.1,0.9,2,2,2h6v-2H5V5z M12,3c0.55,0,1,0.45,1,1s-0.45,1-1,1s-1-0.45-1-1S11.45,3,12,3z"></path>
        <polygon points="21,11.5 15.51,17 12.5,14 11,15.5 15.51,20 22.5,13"></polygon>
      </g>
    </g>
  </symbol>
  <symbol xmlns="http://www.w3.org/2000/svg" enable-background="new 0 0 24 24" viewBox="0 0 24 24" id="pending_actions_black_24dp">
    <g>
      <rect fill="none" height="24" width="24"></rect>
      <path d="M17,12c-2.76,0-5,2.24-5,5s2.24,5,5,5c2.76,0,5-2.24,5-5S19.76,12,17,12z M18.65,19.35l-2.15-2.15V14h1v2.79l1.85,1.85 L18.65,19.35z M18,3h-3.18C14.4,1.84,13.3,1,12,1S9.6,1.84,9.18,3H6C4.9,3,4,3.9,4,5v15c0,1.1,0.9,2,2,2h6.11 c-0.59-0.57-1.07-1.25-1.42-2H6V5h2v3h8V5h2v5.08c0.71,0.1,1.38,0.31,2,0.6V5C20,3.9,19.1,3,18,3z M12,5c-0.55,0-1-0.45-1-1 c0-0.55,0.45-1,1-1c0.55,0,1,0.45,1,1C13,4.55,12.55,5,12,5z"></path>
    </g>
  </symbol>
  <symbol xmlns="http://www.w3.org/2000/svg" viewBox="0 0 24 24" id="check_circle_black_24dp">
    <path d="M0 0h24v24H0V0z" fill="none"></path>
    <path d="M12 2C6.48 2 2 6.48 2 12s4.48 10 10 10 10-4.48 10-10S17.52 2 12 2zm0 18c-4.41 0-8-3.59-8-8s3.59-8 8-8 8 3.59 8 8-3.59 8-8 8zm4.59-12.42L10 14.17l-2.59-2.58L6 13l4 4 8-8z"></path>
  </symbol>
  <symbol xmlns="http://www.w3.org/2000/svg" viewBox="0 0 24 24" id="content_paste_black_24dp">
    <path d="M0 0h24v24H0V0z" fill="none"></path>
    <path d="M19 2h-4.18C14.4.84 13.3 0 12 0S9.6.84 9.18 2H5c-1.1 0-2 .9-2 2v16c0 1.1.9 2 2 2h14c1.1 0 2-.9 2-2V4c0-1.1-.9-2-2-2zm-7 0c.55 0 1 .45 1 1s-.45 1-1 1-1-.45-1-1 .45-1 1-1zm7 18H5V4h2v3h10V4h2v16z"></path>
  </symbol>
  <symbol xmlns="http://www.w3.org/2000/svg" viewBox="0 0 24 24" id="delete_black_24dp">
    <path d="M0 0h24v24H0V0z" fill="none"></path>
    <path d="M16 9v10H8V9h8m-1.5-6h-5l-1 1H5v2h14V4h-3.5l-1-1zM18 7H6v12c0 1.1.9 2 2 2h8c1.1 0 2-.9 2-2V7z"></path>
  </symbol>
  <symbol xmlns="http://www.w3.org/2000/svg" viewBox="0 0 24 24" id="edit_black_24dp">
    <path d="M0 0h24v24H0V0z" fill="none"></path>
    <path d="M14.06 9.02l.92.92L5.92 19H5v-.92l9.06-9.06M17.66 3c-.25 0-.51.1-.7.29l-1.83 1.83 3.75 3.75 1.83-1.83c.39-.39.39-1.02 0-1.41l-2.34-2.34c-.2-.2-.45-.29-.71-.29zm-3.6 3.19L3 17.25V21h3.75L17.81 9.94l-3.75-3.75z"></path>
  </symbol>
  <symbol xmlns="http://www.w3.org/2000/svg" viewBox="0 0 24 24" id="event_black_24dp">
    <path d="M0 0h24v24H0V0z" fill="none"></path>
    <path d="M19 4h-1V2h-2v2H8V2H6v2H5c-1.11 0-1.99.9-1.99 2L3 20c0 1.1.89 2 2 2h14c1.1 0 2-.9 2-2V6c0-1.1-.9-2-2-2zm0 16H5V10h14v10zm0-12H5V6h14v2zm-7 5h5v5h-5z"></path>
  </symbol>
</svg>